<?xml version="1.0" encoding="UTF-8" standalone="no"?>
<svg
   height="48"
   width="48"
   version="1.1"
   id="svg4"
   sodipodi:docname="history.svg"
   inkscape:version="1.2.1 (9c6d41e410, 2022-07-14)"
   xmlns:inkscape="http://www.inkscape.org/namespaces/inkscape"
   xmlns:sodipodi="http://sodipodi.sourceforge.net/DTD/sodipodi-0.dtd"
   xmlns="http://www.w3.org/2000/svg"
   xmlns:svg="http://www.w3.org/2000/svg">
  <defs
     id="defs8" />
  <sodipodi:namedview
     id="namedview6"
     pagecolor="#ffffff"
     bordercolor="#000000"
     borderopacity="0.25"
     inkscape:showpageshadow="2"
     inkscape:pageopacity="0.0"
     inkscape:pagecheckerboard="0"
     inkscape:deskcolor="#d1d1d1"
     showgrid="false"
     inkscape:zoom="17.4375"
     inkscape:cx="23.971326"
     inkscape:cy="24.028674"
     inkscape:window-width="1920"
     inkscape:window-height="1017"
     inkscape:window-x="-8"
     inkscape:window-y="-8"
     inkscape:window-maximized="1"
     inkscape:current-layer="svg4" />
  <path
     d="M23.85 42q-7.45 0-12.65-5.275T6 23.95h3q0 6.25 4.3 10.65T23.85 39q6.35 0 10.75-4.45t4.4-10.8q0-6.2-4.45-10.475Q30.1 9 23.85 9q-3.4 0-6.375 1.55t-5.175 4.1h5.25v3H7.1V7.25h3v5.3q2.6-3.05 6.175-4.8Q19.85 6 23.85 6q3.75 0 7.05 1.4t5.775 3.825q2.475 2.425 3.9 5.675Q42 20.15 42 23.9t-1.425 7.05q-1.425 3.3-3.9 5.75-2.475 2.45-5.775 3.875Q27.6 42 23.85 42Zm6.4-9.85-7.7-7.6v-10.7h3v9.45L32.4 30Z"
     id="path2"
     style="fill:#ffffff" />
</svg>
